<svg width="20" height="20" viewBox="0 0 20 20" fill="none" xmlns="http://www.w3.org/2000/svg">
<path d="M19.6094 4.54207H18.4375C18.264 4.54207 18.1112 4.65656 18.0625 4.82312L17.6684 6.17188H15.9464V3.5502C15.9464 3.31598 16.137 3.12543 16.3712 3.12543H17.2375C17.6403 3.12543 17.968 3.45312 17.968 3.85594C17.968 4.07168 18.1429 4.24656 18.3586 4.24656H19.1952C19.411 4.24656 19.5859 4.07168 19.5859 3.85594V2.85793C19.5858 1.28207 18.3037 0 16.7279 0H13.6193C13.446 0 13.2934 0.114141 13.2445 0.28043L13.1996 0.433164H13.096L12.957 0.19418C12.887 0.0739844 12.7584 0 12.6193 0H11.2943C11.0786 0 10.9037 0.174883 10.9037 0.390625V3.11703C10.9037 3.33277 11.0786 3.50766 11.2943 3.50766H12.6193C12.7584 3.50766 12.887 3.43367 12.957 3.31344L13.096 3.07445H13.1545L13.2286 3.57871V6.17188H11.9922V6.00941C11.9922 5.94145 11.9737 5.87203 11.9394 5.81332L10.6894 3.65988C10.6195 3.53945 10.4908 3.46535 10.3516 3.46535C10.2123 3.46535 10.0836 3.53945 10.0138 3.65988L8.76375 5.81332C8.72941 5.87203 8.71094 5.94145 8.71094 6.00941V6.17188H7.82812L8.7809 0.454844C8.79977 0.341602 8.76789 0.225742 8.69367 0.138125C8.61945 0.0505078 8.51043 0 8.39563 0H3.59375C3.37801 0 3.20312 0.174883 3.20312 0.390625V6.17188H2.33164L1.93746 4.82312C1.88875 4.65656 1.73605 4.54207 1.5625 4.54207H0.390625C0.174883 4.54207 0 4.71695 0 4.9327V19.6094C0 19.8251 0.174883 20 0.390625 20H19.6094C19.8251 20 20 19.8251 20 19.6094V4.9327C20 4.71695 19.8251 4.54207 19.6094 4.54207ZM17.4401 6.95312L16.5953 9.84375H16.405V7.65578C16.405 7.39047 16.3131 7.14641 16.1598 6.95312H17.4401ZM12.8713 2.29324C12.7322 2.29324 12.6036 2.36723 12.5336 2.48746L12.3946 2.72645H11.6849V0.78125H12.3946L12.5336 1.02023C12.6036 1.14047 12.7322 1.21441 12.8713 1.21441H13.4918C13.6651 1.21441 13.8177 1.10027 13.8666 0.933984L13.9115 0.78125H16.7279C17.8729 0.78125 18.8046 1.71285 18.8046 2.85793V3.46531H18.6981C18.5255 2.82043 17.9361 2.34418 17.2375 2.34418H16.3711C15.8428 2.34418 15.3927 2.6857 15.23 3.15957H13.9566L13.8783 2.62703C13.8501 2.43531 13.6856 2.29324 13.4918 2.29324H12.8713ZM15.2722 7.30422C15.4661 7.30422 15.6238 7.46195 15.6238 7.65578V9.84375H13.5512V7.65578C13.5512 7.46195 13.709 7.30422 13.9028 7.30422H15.2722ZM14.0099 6.52297V3.94082H15.1652V6.52297H14.0099ZM11.9922 6.95312H13.0152C12.8619 7.14641 12.77 7.39047 12.77 7.65578V9.84375H11.9922V6.95312ZM10.3516 4.63406L10.9232 5.61879H9.77996L10.3516 4.63406ZM9.49219 6.40004H11.2109V9.84375H9.49219V6.40004ZM8.71094 6.95312V9.84375H7.21617L7.69793 6.95312H8.71094ZM5.42848 0.78125H6.49527L6.34625 1.71875H5.42848V0.78125ZM3.98438 0.78125H4.64723V2.10938C4.64723 2.32512 4.82211 2.5 5.03785 2.5H6.67969C6.87176 2.5 7.03531 2.36039 7.06547 2.1707L7.28633 0.78125H7.93449L7.48719 3.46531H3.98438V0.78125ZM3.98438 4.24656H7.35695L6.42414 9.84375H3.98438V4.24656ZM3.20312 6.95312V9.15391L2.55996 6.95312H3.20312ZM19.2188 14.5312H13.4273C13.2116 14.5312 13.0367 14.7062 13.0367 14.9219C13.0367 15.1376 13.2116 15.3125 13.4273 15.3125H19.2188V17.6562H12.4455C12.2297 17.6562 12.0548 17.8312 12.0548 18.0469C12.0548 18.2626 12.2297 18.4375 12.4455 18.4375H19.2188V19.2188H0.78125V5.32332H1.26969L1.66543 6.67742C1.66562 6.67805 1.66578 6.67863 1.66598 6.67926L2.73699 10.344C2.7857 10.5105 2.9384 10.625 3.11195 10.625H16.8881C17.0616 10.625 17.2144 10.5105 17.263 10.3439L18.7303 5.32332H19.2188V14.5312Z" fill="#333456" fill-opacity="0.6"/>
</svg>
