<svg width="20" height="20" viewBox="0 0 20 20" fill="none" xmlns="http://www.w3.org/2000/svg">
<path d="M18.1588 3.76562H17.4896V1.84113C17.4896 0.802969 16.644 0 15.6484 0H1.84117C0.845703 0 0 0.802969 0 1.84113V6.86195C0 7.9023 0.847344 8.70312 1.84117 8.70312H2.51043V9.37238C2.51043 10.3876 3.33641 11.2136 4.3516 11.2136C5.34547 11.2136 6.19273 10.4127 6.19273 9.37238V8.70312H15.6484C16.6423 8.70312 17.4896 7.90234 17.4896 6.86199V4.9375H18.1589C18.5258 4.9375 18.8282 5.23465 18.8282 5.60676V9.37238C18.8282 9.74902 18.5232 10.0417 18.1589 10.0417H10C9.00465 10.0417 8.15883 10.8446 8.15883 11.8828V12.6482C7.43012 12.8936 6.90363 13.5829 6.90363 14.3932V18.1589C6.90363 19.1992 7.75098 20 8.74477 20C9.75996 20 10.5859 19.1741 10.5859 18.1589V14.3932C10.5859 13.2806 9.72738 12.783 9.3307 12.6493V11.8828C9.3307 11.5109 9.63305 11.2136 10 11.2136H18.1588C19.1527 11.2136 20 10.4128 20 9.37238V5.60676C20 4.56859 19.1544 3.76562 18.1588 3.76562ZM1.84117 7.53125C1.47668 7.53125 1.17188 7.2384 1.17188 6.86199V1.84113C1.17188 1.46922 1.47414 1.17188 1.84117 1.17188C2.2102 1.17188 2.51043 1.47211 2.51043 1.84113V7.53125H1.84117ZM5.02082 9.37238C5.02082 9.74871 4.71621 10.0417 4.35156 10.0417C3.98254 10.0417 3.68227 9.74145 3.68227 9.37238V1.84113C3.68227 1.60516 3.63762 1.37937 3.55637 1.17188H10.1675C10.0862 1.37941 10.0416 1.6052 10.0416 1.84113V4.35156C10.0416 4.72059 9.74137 5.02082 9.37234 5.02082C9.00332 5.02082 8.70312 4.72059 8.70312 4.35156C8.70312 3.33637 7.87719 2.51043 6.86199 2.51043C5.86652 2.51043 5.02082 3.3134 5.02082 4.35156V9.37238ZM16.3177 6.86199C16.3177 7.23844 16.013 7.53125 15.6484 7.53125H6.1927V4.35156C6.1927 3.97965 6.49496 3.6823 6.86199 3.6823C7.23102 3.6823 7.53125 3.98254 7.53125 4.35156C7.53125 5.36676 8.35723 6.1927 9.37242 6.1927C10.3876 6.1927 11.2136 5.36676 11.2136 4.35156V1.84113C11.2136 1.47211 11.5138 1.17188 11.8829 1.17188H15.6484C16.0154 1.17188 16.3177 1.46902 16.3177 1.84113V6.86199H16.3177ZM9.41406 18.1589C9.41406 18.5279 9.11379 18.8281 8.74477 18.8281C8.37953 18.8281 8.07551 18.5345 8.07551 18.1589V14.3932C8.07551 14.0242 8.37574 13.724 8.74477 13.724C9.11168 13.724 9.41406 14.0211 9.41406 14.3932V18.1589Z" fill="#333456" fill-opacity="0.5"/>
</svg>
