<svg width="20" height="20" viewBox="0 0 20 20" fill="none" xmlns="http://www.w3.org/2000/svg">
<path d="M17.3332 14H16.8112C16.4451 14.0003 16.0841 14.0855 15.7565 14.249C15.2799 14.4859 14.7198 14.4859 14.2432 14.249C14.053 14.1557 13.8513 14.0884 13.6432 14.049L14.2928 9H14.9998C15.1839 9 15.3332 8.85075 15.3332 8.66667V7.33333C15.3332 7.14925 15.1839 7 14.9998 7H13.6665V6C13.6665 5.91158 13.6313 5.82683 13.5688 5.76433L11.9998 4.19533V3.16L12.5052 2.756L13.3682 4.48233L13.9648 4.18433L13.0375 2.33L13.4498 2H14.6665C14.8506 2 14.9998 1.85075 14.9998 1.66667V0.333333C14.9998 0.14925 14.8506 0 14.6665 0H11.3332C9.67717 0.002 8.33517 1.344 8.33317 3C8.33317 3.18408 8.48242 3.33333 8.6665 3.33333H9.33317V4.19533L8.43084 5.09767C8.36834 5.16017 8.33317 5.24492 8.33317 5.33333V7H7.6665V4.33333C7.666 4.29204 7.65775 4.25125 7.64217 4.213C7.63609 4.20004 7.62917 4.18746 7.6215 4.17533C7.6135 4.15788 7.60413 4.14104 7.5935 4.125L6.33317 2.55V0.333333C6.33317 0.14925 6.18392 0 5.99984 0H3.99984C3.81575 0 3.6665 0.14925 3.6665 0.333333V2.55L2.40617 4.125C2.39555 4.14104 2.38617 4.15788 2.37817 4.17533C2.3705 4.18746 2.36359 4.20004 2.3575 4.213C2.34192 4.25125 2.33367 4.29204 2.33317 4.33333V7H0.999837C0.815754 7 0.666504 7.14925 0.666504 7.33333V8.66667C0.666504 8.85075 0.815754 9 0.999837 9H1.70684L3.0025 19.0427C3.02396 19.2089 3.16555 19.3334 3.33317 19.3333H11.1798C11.5579 19.7571 12.0986 19.9996 12.6665 20H13.1885C13.5546 19.9997 13.9156 19.9145 14.2432 19.751C14.7198 19.5141 15.2799 19.5141 15.7565 19.751C16.0841 19.9145 16.4451 19.9997 16.8112 20H17.3332C18.4373 19.9989 19.3321 19.1041 19.3332 18V16C19.3321 14.8959 18.4373 14.0011 17.3332 14ZM13.6665 0.666667H14.3332V1.33333H13.6665V0.666667ZM14.6665 7.66667V8.33333H9.99984V7.66667H14.6665ZM9.0235 2.66667C9.19071 1.51938 10.1738 0.668125 11.3332 0.666667H12.9998V1.50667L11.5495 2.66667H9.0235ZM11.3332 3.33333V4H9.99984V3.33333H11.3332ZM8.99984 5.47133L9.8045 4.66667H11.5285L12.9998 6.138V7H8.99984V5.47133ZM8.6665 7.66667H9.33317V10C9.33246 10.127 9.40396 10.2432 9.5175 10.3L11.5175 11.3C11.615 11.3481 11.689 11.4335 11.7225 11.537C11.757 11.648 11.745 11.7683 11.6892 11.8703C11.5933 12.0628 11.3595 12.141 11.167 12.0451C11.1668 12.045 11.1665 12.0448 11.1662 12.0447L9.81284 11.368C9.64742 11.2872 9.44784 11.3558 9.367 11.5212C9.34488 11.5665 9.33329 11.6163 9.33317 11.6667V15C9.33317 15.3682 9.03471 15.6667 8.6665 15.6667V12.6667H7.99984V15.6667H7.33317V12.6667H6.6665V15.6667H5.99984V12.6667H5.33317V15.6667C4.96496 15.6667 4.6665 15.3682 4.6665 15V7.66667H8.6665ZM4.33317 0.666667H5.6665V2.33333H4.33317V0.666667ZM4.15984 3H5.83984L6.63984 4H3.35984L4.15984 3ZM2.99984 4.66667H6.99984V7H2.99984V4.66667ZM1.33317 8.33333V7.66667H3.99984V8.33333H1.33317ZM10.6665 16V18C10.6671 18.2273 10.7065 18.4527 10.7832 18.6667H3.62617L2.37884 9H3.99984V15C3.99984 15.7364 4.5968 16.3333 5.33317 16.3333H8.6665C9.40288 16.3333 9.99984 15.7364 9.99984 15V12.206L10.8705 12.6413C11.3966 12.901 12.0336 12.685 12.2933 12.1589C12.2944 12.1567 12.2954 12.1545 12.2965 12.1523C12.4256 11.8964 12.4476 11.5995 12.3575 11.3273C12.2687 11.055 12.0741 10.83 11.8175 10.7027L9.99984 9.794V9H13.6208L12.9755 14H12.6665C11.5624 14.0011 10.6676 14.8959 10.6665 16ZM18.6665 18C18.6665 18.7364 18.0695 19.3333 17.3332 19.3333H16.8112C16.5486 19.333 16.2898 19.2718 16.0548 19.1547C15.3903 18.8245 14.6094 18.8245 13.9448 19.1547C13.7099 19.2718 13.451 19.333 13.1885 19.3333H12.6665C11.9301 19.3333 11.3332 18.7364 11.3332 18V17.4867C11.6987 17.817 12.1738 17.9999 12.6665 18H13.1885C13.5546 17.9997 13.9156 17.9145 14.2432 17.751C14.7198 17.5141 15.2799 17.5141 15.7565 17.751C16.0841 17.9145 16.4451 17.9997 16.8112 18H17.3332C17.8258 17.9999 18.301 17.817 18.6665 17.4867V18ZM17.3332 17.3333H16.8112C16.5486 17.333 16.2898 17.2718 16.0548 17.1547C15.3903 16.8245 14.6094 16.8245 13.9448 17.1547C13.7099 17.2718 13.451 17.333 13.1885 17.3333H12.6665C11.9301 17.3333 11.3332 16.7364 11.3332 16C11.3332 15.2636 11.9301 14.6667 12.6665 14.6667H13.1885C13.451 14.667 13.7099 14.7282 13.9448 14.8453C14.6095 15.1753 15.3902 15.1753 16.0548 14.8453C16.2898 14.7282 16.5486 14.667 16.8112 14.6667H17.3332C18.0695 14.6667 18.6665 15.2636 18.6665 16C18.6665 16.7364 18.0695 17.3333 17.3332 17.3333Z" fill="#333456" fill-opacity="0.7"/>
</svg>
